<?xml version="1.0" encoding="UTF-8"?> <svg xmlns="http://www.w3.org/2000/svg" id="a" data-name="Layer 1" viewBox="0 0 222.939 134.346"><g><g><path d="M11.744,69.091H1v-4.062h26.458v4.062h-10.69v33.086h-5.024v-33.086Z" fill="#fff" stroke="#fff" stroke-width="2"></path><path d="M44.3,102.925c-9.515,0-14.325-3.261-14.325-19.136,0-15.981,5.185-19.509,14.752-19.509,9.515,0,14.325,3.26,14.325,19.189s-5.185,19.456-14.752,19.456ZM44.514,68.235c-6.361,0-9.515,2.352-9.515,15.34s3.154,15.395,9.515,15.395,9.514-2.352,9.514-15.287-3.154-15.448-9.514-15.448Z" fill="#fff" stroke="#fff" stroke-width="2"></path><path d="M103.957,100.948c-2.726,1.069-6.788,1.871-10.744,1.871-10.263,0-14.699-3.261-14.699-19.029s5.719-19.349,15.501-19.349c3.314,0,6.468.481,9.247,1.229l-.588,3.849c-2.886-.695-5.559-1.123-8.499-1.123-7.002,0-10.637,2.245-10.637,15.18,0,13.043,3.154,15.287,9.675,15.287,2.459,0,4.49-.48,5.933-1.015v-12.775h-7.697v-3.956h12.507v19.831Z" fill="#fff" stroke="#fff" stroke-width="2"></path><path d="M111.336,65.028h10.583c9.408,0,12.775,1.978,12.775,9.408,0,6.147-2.779,9.193-9.728,9.889l10.797,17.853h-5.826l-10.209-17.265h-3.368v17.265h-5.024v-37.149ZM121.76,81.064c6.2,0,7.964-1.978,7.964-6.468,0-4.543-1.924-5.719-7.964-5.719h-5.399v12.187h5.399Z" fill="#fff" stroke="#fff" stroke-width="2"></path><path d="M155.01,102.925c-9.515,0-14.325-3.261-14.325-19.136,0-15.981,5.185-19.509,14.753-19.509,9.514,0,14.325,3.26,14.325,19.189s-5.186,19.456-14.753,19.456ZM155.224,68.235c-6.361,0-9.515,2.352-9.515,15.34s3.153,15.395,9.515,15.395,9.515-2.352,9.515-15.287-3.154-15.448-9.515-15.448Z" fill="#fff" stroke="#fff" stroke-width="2"></path><path d="M173.935,65.028h5.292l5.131,21.328c.962,4.062,1.604,7.696,2.513,12.347h.106c.855-4.597,1.443-8.285,2.459-12.347l4.971-21.328h7.109l4.918,21.328c1.015,4.115,1.656,7.696,2.512,12.347h.107c.908-4.65,1.604-8.285,2.565-12.347l5.078-21.328h4.971l-9.033,37.149h-7.377l-5.131-22.236c-.855-3.849-1.604-7.75-2.245-11.492h-.054c-.694,3.795-1.496,7.644-2.352,11.492l-5.132,22.236h-7.376l-9.033-37.149Z" fill="#fff" stroke="#fff" stroke-width="2"></path></g><g><path d="M11.744,69.091H1v-4.062h26.458v4.062h-10.69v33.086h-5.024v-33.086Z" fill="#fff" stroke-width="0"></path><path d="M44.3,102.925c-9.515,0-14.325-3.261-14.325-19.136,0-15.981,5.185-19.509,14.752-19.509,9.515,0,14.325,3.26,14.325,19.189s-5.185,19.456-14.752,19.456ZM44.514,68.235c-6.361,0-9.515,2.352-9.515,15.34s3.154,15.395,9.515,15.395,9.514-2.352,9.514-15.287-3.154-15.448-9.514-15.448Z" fill="#fff" stroke-width="0"></path><path d="M103.957,100.948c-2.726,1.069-6.788,1.871-10.744,1.871-10.263,0-14.699-3.261-14.699-19.029s5.719-19.349,15.501-19.349c3.314,0,6.468.481,9.247,1.229l-.588,3.849c-2.886-.695-5.559-1.123-8.499-1.123-7.002,0-10.637,2.245-10.637,15.18,0,13.043,3.154,15.287,9.675,15.287,2.459,0,4.49-.48,5.933-1.015v-12.775h-7.697v-3.956h12.507v19.831Z" fill="#fff" stroke-width="0"></path><path d="M111.336,65.028h10.583c9.408,0,12.775,1.978,12.775,9.408,0,6.147-2.779,9.193-9.728,9.889l10.797,17.853h-5.826l-10.209-17.265h-3.368v17.265h-5.024v-37.149ZM121.76,81.064c6.2,0,7.964-1.978,7.964-6.468,0-4.543-1.924-5.719-7.964-5.719h-5.399v12.187h5.399Z" fill="#fff" stroke-width="0"></path><path d="M155.01,102.925c-9.515,0-14.325-3.261-14.325-19.136,0-15.981,5.185-19.509,14.753-19.509,9.514,0,14.325,3.26,14.325,19.189s-5.186,19.456-14.753,19.456ZM155.224,68.235c-6.361,0-9.515,2.352-9.515,15.34s3.153,15.395,9.515,15.395,9.515-2.352,9.515-15.287-3.154-15.448-9.515-15.448Z" fill="#fff" stroke-width="0"></path><path d="M173.935,65.028h5.292l5.131,21.328c.962,4.062,1.604,7.696,2.513,12.347h.106c.855-4.597,1.443-8.285,2.459-12.347l4.971-21.328h7.109l4.918,21.328c1.015,4.115,1.656,7.696,2.512,12.347h.107c.908-4.65,1.604-8.285,2.565-12.347l5.078-21.328h4.971l-9.033,37.149h-7.377l-5.131-22.236c-.855-3.849-1.604-7.75-2.245-11.492h-.054c-.694,3.795-1.496,7.644-2.352,11.492l-5.132,22.236h-7.376l-9.033-37.149Z" fill="#fff" stroke-width="0"></path></g><g><path d="M11.744,69.091H1v-4.062h26.458v4.062h-10.69v33.086h-5.024v-33.086Z" fill="none" stroke="#fff" stroke-width="2"></path><path d="M44.3,102.925c-9.515,0-14.325-3.261-14.325-19.136,0-15.981,5.185-19.509,14.752-19.509,9.515,0,14.325,3.26,14.325,19.189s-5.185,19.456-14.752,19.456ZM44.514,68.235c-6.361,0-9.515,2.352-9.515,15.34s3.154,15.395,9.515,15.395,9.514-2.352,9.514-15.287-3.154-15.448-9.514-15.448Z" fill="none" stroke="#fff" stroke-width="2"></path><path d="M103.957,100.948c-2.726,1.069-6.788,1.871-10.744,1.871-10.263,0-14.699-3.261-14.699-19.029s5.719-19.349,15.501-19.349c3.314,0,6.468.481,9.247,1.229l-.588,3.849c-2.886-.695-5.559-1.123-8.499-1.123-7.002,0-10.637,2.245-10.637,15.18,0,13.043,3.154,15.287,9.675,15.287,2.459,0,4.49-.48,5.933-1.015v-12.775h-7.697v-3.956h12.507v19.831Z" fill="none" stroke="#fff" stroke-width="2"></path><path d="M111.336,65.028h10.583c9.408,0,12.775,1.978,12.775,9.408,0,6.147-2.779,9.193-9.728,9.889l10.797,17.853h-5.826l-10.209-17.265h-3.368v17.265h-5.024v-37.149ZM121.76,81.064c6.2,0,7.964-1.978,7.964-6.468,0-4.543-1.924-5.719-7.964-5.719h-5.399v12.187h5.399Z" fill="none" stroke="#fff" stroke-width="2"></path><path d="M155.01,102.925c-9.515,0-14.325-3.261-14.325-19.136,0-15.981,5.185-19.509,14.753-19.509,9.514,0,14.325,3.26,14.325,19.189s-5.186,19.456-14.753,19.456ZM155.224,68.235c-6.361,0-9.515,2.352-9.515,15.34s3.153,15.395,9.515,15.395,9.515-2.352,9.515-15.287-3.154-15.448-9.515-15.448Z" fill="none" stroke="#fff" stroke-width="2"></path><path d="M173.935,65.028h5.292l5.131,21.328c.962,4.062,1.604,7.696,2.513,12.347h.106c.855-4.597,1.443-8.285,2.459-12.347l4.971-21.328h7.109l4.918,21.328c1.015,4.115,1.656,7.696,2.512,12.347h.107c.908-4.65,1.604-8.285,2.565-12.347l5.078-21.328h4.971l-9.033,37.149h-7.377l-5.131-22.236c-.855-3.849-1.604-7.75-2.245-11.492h-.054c-.694,3.795-1.496,7.644-2.352,11.492l-5.132,22.236h-7.376l-9.033-37.149Z" fill="none" stroke="#fff" stroke-width="2"></path></g></g><g><path d="M12.851,116.896v3.351c.206-.391.925-1.068,2.179-1.068,1.83,0,2.857,1.15,2.857,2.979v5.817c0,2.055-1.336,3.206-3.165,3.206h-3.289c-.493,0-.761-.268-.761-.761v-13.524c0-.493.268-.78.761-.78h.658c.493,0,.76.287.76.78ZM14.228,129.25c.945,0,1.459-.515,1.459-1.439v-5.344c0-.904-.514-1.336-1.377-1.336-.802,0-1.459.432-1.459,1.315v6.804h1.377Z" fill="#fff" stroke-width="0"></path><path d="M27.468,120.062v10.358c0,.493-.288.761-.781.761h-.534c-.493,0-.761-.268-.761-.761v-.452c-.164.473-.822,1.295-2.425,1.295-1.829,0-2.713-1.233-2.713-2.939v-8.262c0-.493.267-.781.76-.781h.658c.494,0,.761.288.761.781v7.893c0,.904.493,1.397,1.377,1.397.781,0,1.459-.493,1.459-1.356v-7.934c0-.493.267-.781.76-.781h.658c.494,0,.781.288.781.781Z" fill="#fff" stroke-width="0"></path><path d="M31.232,118.356c-.966,0-1.274-.514-1.274-1.213,0-.72.308-1.233,1.274-1.233.946,0,1.274.514,1.274,1.233,0,.699-.329,1.213-1.274,1.213ZM30.903,119.486h.658c.493,0,.76.268.76.761v10.174c0,.493-.267.761-.76.761h-.658c-.493,0-.761-.268-.761-.761v-10.174c0-.493.268-.761.761-.761Z" fill="#fff" stroke-width="0"></path><path d="M35.776,116.116h.658c.493,0,.76.287.76.78v13.524c0,.493-.267.761-.76.761h-.658c-.493,0-.761-.268-.761-.761v-13.524c0-.493.268-.78.761-.78Z" fill="#fff" stroke-width="0"></path><path d="M42.643,119.322c1.274,0,1.912.657,2.055.884v-3.31c0-.493.268-.78.761-.78h.658c.493,0,.781.287.781.78v13.524c0,.493-.288.761-.781.761h-.637c-.493,0-.781-.205-.781-.616v-.35c-.164.37-.863,1.048-2.179,1.048-1.87,0-2.836-1.192-2.836-3.021v-5.796c0-2.015,1.212-3.124,2.959-3.124ZM43.239,121.212c-.863,0-1.377.452-1.377,1.356v5.427c0,.884.514,1.336,1.377,1.336.801,0,1.459-.432,1.459-1.315v-5.488c0-.863-.658-1.315-1.459-1.315Z" fill="#fff" stroke-width="0"></path><path d="M50.662,118.356c-.966,0-1.274-.514-1.274-1.213,0-.72.308-1.233,1.274-1.233.946,0,1.274.514,1.274,1.233,0,.699-.329,1.213-1.274,1.213ZM50.333,119.486h.658c.493,0,.76.268.76.761v10.174c0,.493-.267.761-.76.761h-.658c-.493,0-.761-.268-.761-.761v-10.174c0-.493.268-.761.761-.761Z" fill="#fff" stroke-width="0"></path><path d="M54.445,130.42v-10.358c0-.493.268-.781.761-.781h.534c.494,0,.781.288.781.781v.432c.226-.494.966-1.295,2.384-1.295,1.747,0,2.754,1.15,2.754,2.856v8.365c0,.493-.288.761-.781.761h-.658c-.493,0-.761-.268-.761-.761v-7.913c0-.904-.493-1.397-1.377-1.397-.781,0-1.459.493-1.459,1.377v7.934c0,.493-.267.761-.76.761h-.658c-.493,0-.761-.268-.761-.761Z" fill="#fff" stroke-width="0"></path><path d="M71.057,120.185c-.226,0-.432.041-.596.123.37.493.534,1.131.534,1.87v1.789c0,1.911-1.151,3.124-3.7,3.124-.514,0-.76.267-.76.78s.288.72,1.11.72h1.171c2.035,0,2.96.822,2.96,2.487v.391c0,1.747-1.192,2.877-4.008,2.877h-.801c-1.295,0-2.302-.226-2.96-.493-.411-.185-.555-.473-.555-.904v-.452c0-.575.411-.74.966-.514.74.287,1.48.473,2.507.473h.596c1.665,0,2.158-.391,2.158-1.027v-.165c0-.514-.165-.843-1.11-.843h-1.254c-1.768,0-2.733-.555-2.733-1.788v-.329c0-.719.452-1.253,1.13-1.418-1.459-.411-2.117-1.459-2.117-2.918v-1.789c0-1.911,1.151-3.104,3.7-3.104.945,0,1.686.165,2.261.452.288-.884.966-1.377,1.706-1.377.473,0,.617.206.617.597v.698c0,.493-.185.74-.822.74ZM68.857,122.178c0-.862-.493-1.315-1.562-1.315s-1.562.453-1.562,1.315v1.81c0,.863.493,1.315,1.562,1.315s1.562-.452,1.562-1.315v-1.81Z" fill="#fff" stroke-width="0"></path><path d="M77.905,116.116h.658c.493,0,.76.287.76.78v13.524c0,.493-.267.761-.76.761h-.658c-.493,0-.761-.268-.761-.761v-13.524c0-.493.268-.78.761-.78Z" fill="#fff" stroke-width="0"></path><path d="M83.106,118.356c-.966,0-1.274-.514-1.274-1.213,0-.72.308-1.233,1.274-1.233.946,0,1.274.514,1.274,1.233,0,.699-.329,1.213-1.274,1.213ZM82.778,119.486h.658c.493,0,.76.268.76.761v10.174c0,.493-.267.761-.76.761h-.658c-.493,0-.761-.268-.761-.761v-10.174c0-.493.268-.761.761-.761Z" fill="#fff" stroke-width="0"></path><path d="M86.623,119.281h.514l.37-1.562c.124-.452.411-.637.946-.637.493,0,.781.267.781.761v1.438h1.397c.494,0,.761.288.761.781v.328c0,.494-.267.781-.761.781h-1.397v6.927c0,.802.329,1.151,1.11,1.151.719,0,1.213-.062,1.213.616v.514c0,.597-.576.884-1.624.884-2.055,0-2.898-1.233-2.898-3.083v-7.009h-.411c-.514,0-.781-.287-.781-.781v-.328c0-.493.267-.781.781-.781Z" fill="#fff" stroke-width="0"></path><path d="M95.094,125.858v2.179c0,.884.493,1.397,1.5,1.397s1.5-.493,1.5-1.336v-.185c0-.474.267-.72.76-.72h.617c.493,0,.781.226.781.698v.145c0,2.097-1.377,3.35-3.659,3.35-2.302,0-3.638-1.253-3.638-3.391v-5.529c0-2.117,1.336-3.392,3.638-3.392s3.659,1.274,3.659,3.392v2.61c0,.391-.185.638-.493.72-.103.041-.227.062-.35.062h-4.316ZM95.094,122.425v1.686h3.021v-1.686c0-.884-.514-1.397-1.521-1.397s-1.5.514-1.5,1.397Z" fill="#fff" stroke-width="0"></path><path d="M106.525,121.48c-.514.021-.987.123-1.254.391-.226.226-.37.575-.37,1.109v7.44c0,.493-.267.761-.76.761h-.658c-.493,0-.761-.268-.761-.761v-10.358c0-.493.268-.781.761-.781h.534c.494,0,.781.288.781.781v.801c.103-.698.781-1.644,1.994-1.644.432,0,.576.185.576.534v.761c0,.843-.268.925-.843.966Z" fill="#fff" stroke-width="0"></path><path d="M115.735,122.364v8.057c0,.493-.268.761-.761.761h-.596c-.493,0-.781-.268-.781-.72v-.432c-.165.452-.719,1.274-2.22,1.274-1.932,0-2.98-1.027-2.98-2.856v-.617c0-1.5.822-2.343,2.405-2.897l2.754-.966v-1.624c0-.884-.411-1.315-1.439-1.315-1.007,0-1.439.432-1.439,1.295v.103c0,.452-.288.699-.781.699h-.637c-.493,0-.76-.247-.76-.699v-.082c0-2.117,1.274-3.269,3.617-3.269s3.618,1.151,3.618,3.289ZM113.557,128.119v-2.261l-1.768.596c-.905.288-1.213.658-1.213,1.418v.391c0,.822.432,1.254,1.397,1.254,1.131,0,1.583-.596,1.583-1.397Z" fill="#fff" stroke-width="0"></path><path d="M123.158,127.749c0-.493.288-.761.781-.761h.637c.493,0,.76.268.76.761v.247c0,2.138-1.315,3.391-3.617,3.391-2.281,0-3.597-1.253-3.597-3.391v-5.529c0-2.117,1.315-3.392,3.597-3.392,2.302,0,3.617,1.274,3.617,3.392v.288c0,.493-.267.761-.76.761h-.637c-.493,0-.781-.268-.781-.761v-.288c0-.884-.452-1.418-1.438-1.418-.966,0-1.439.534-1.439,1.418v5.529c0,.904.473,1.418,1.439,1.418.986,0,1.438-.514,1.438-1.418v-.247Z" fill="#fff" stroke-width="0"></path><path d="M127.396,119.281h.576c.452,0,.74.246.843.698l.884,3.762c.575,2.508.781,4.48.781,4.48,0,0,.247-1.973.802-4.48l.822-3.762c.103-.452.39-.698.842-.698h.555c.534,0,.781.309.678.843l-2.61,10.955c-.514,2.179-1.706,3.268-3.761,3.268h-.103c-.493,0-.781-.267-.781-.761v-.39c0-.494.288-.72.74-.781h.144c.925-.062,1.438-.761,1.438-1.645,0-.247-.041-.555-.103-.74l-2.425-9.906c-.124-.514.144-.843.678-.843Z" fill="#fff" stroke-width="0"></path><path d="M139.753,119.281h.452v-.35c0-2.179,1.151-3.206,3.001-3.206.822,0,1.213.164,1.213.781v.369c0,.74-.452.679-.863.679-.74,0-1.151.309-1.151,1.131v.596h1.007c.514,0,.781.288.781.781v.328c0,.494-.268.781-.781.781h-1.007v9.249c0,.493-.288.761-.781.761h-.658c-.493,0-.761-.268-.761-.761v-9.249h-.452c-.493,0-.76-.287-.76-.781v-.328c0-.493.267-.781.76-.781Z" fill="#fff" stroke-width="0"></path><path d="M149.538,121.48c-.514.021-.986.123-1.253.391-.227.226-.37.575-.37,1.109v7.44c0,.493-.268.761-.761.761h-.658c-.493,0-.76-.268-.76-.761v-10.358c0-.493.267-.781.76-.781h.535c.493,0,.78.288.78.781v.801c.104-.698.781-1.644,1.994-1.644.432,0,.575.185.575.534v.761c0,.843-.267.925-.843.966Z" fill="#fff" stroke-width="0"></path><path d="M155.316,131.386c-2.303,0-3.639-1.253-3.639-3.391v-5.529c0-2.117,1.336-3.392,3.639-3.392,2.281,0,3.638,1.274,3.638,3.392v5.529c0,2.138-1.356,3.391-3.638,3.391ZM155.316,121.048c-.987,0-1.48.534-1.48,1.418v5.529c0,.904.493,1.418,1.48,1.418.966,0,1.459-.514,1.459-1.418v-5.529c0-.884-.493-1.418-1.459-1.418Z" fill="#fff" stroke-width="0"></path><path d="M161.424,130.42v-10.358c0-.493.267-.781.76-.781h.535c.493,0,.78.288.78.781v.432c.227-.494.946-1.295,2.344-1.295,1.233,0,2.076.555,2.466,1.479.288-.637,1.049-1.479,2.487-1.479,1.768,0,2.713,1.15,2.713,2.856v8.365c0,.493-.267.761-.76.761h-.658c-.493,0-.781-.268-.781-.761v-7.913c0-.904-.432-1.397-1.315-1.397-.781,0-1.438.493-1.438,1.377v7.934c0,.493-.268.761-.761.761h-.657c-.493,0-.781-.268-.781-.761v-7.913c0-.904-.432-1.397-1.315-1.397-.802,0-1.438.493-1.438,1.377v7.934c0,.493-.268.761-.761.761h-.658c-.493,0-.76-.268-.76-.761Z" fill="#fff" stroke-width="0"></path><path d="M181.943,116.896v3.351c.205-.391.925-1.068,2.179-1.068,1.829,0,2.856,1.15,2.856,2.979v5.817c0,2.055-1.336,3.206-3.165,3.206h-3.289c-.493,0-.76-.268-.76-.761v-13.524c0-.493.267-.78.76-.78h.658c.493,0,.761.287.761.78ZM183.32,129.25c.945,0,1.459-.515,1.459-1.439v-5.344c0-.904-.514-1.336-1.377-1.336-.802,0-1.459.432-1.459,1.315v6.804h1.377Z" fill="#fff" stroke-width="0"></path><path d="M190.538,118.356c-.966,0-1.274-.514-1.274-1.213,0-.72.309-1.233,1.274-1.233.945,0,1.274.514,1.274,1.233,0,.699-.329,1.213-1.274,1.213ZM190.209,119.486h.658c.493,0,.761.268.761.761v10.174c0,.493-.268.761-.761.761h-.658c-.493,0-.76-.268-.76-.761v-10.174c0-.493.267-.761.76-.761Z" fill="#fff" stroke-width="0"></path><path d="M197.712,121.48c-.514.021-.986.123-1.253.391-.227.226-.37.575-.37,1.109v7.44c0,.493-.268.761-.761.761h-.658c-.493,0-.76-.268-.76-.761v-10.358c0-.493.267-.781.76-.781h.535c.493,0,.78.288.78.781v.801c.104-.698.781-1.644,1.994-1.644.432,0,.575.185.575.534v.761c0,.843-.267.925-.843.966Z" fill="#fff" stroke-width="0"></path><path d="M200.448,119.281h.514l.37-1.562c.123-.452.411-.637.945-.637.493,0,.781.267.781.761v1.438h1.397c.493,0,.761.288.761.781v.328c0,.494-.268.781-.761.781h-1.397v6.927c0,.802.329,1.151,1.11,1.151.719,0,1.212-.062,1.212.616v.514c0,.597-.575.884-1.623.884-2.056,0-2.898-1.233-2.898-3.083v-7.009h-.411c-.514,0-.781-.287-.781-.781v-.328c0-.493.268-.781.781-.781Z" fill="#fff" stroke-width="0"></path><path d="M207.09,130.42v-13.524c0-.493.267-.78.76-.78h.658c.493,0,.761.287.761.78v3.639c.185-.493.904-1.315,2.281-1.315,1.747,0,2.754,1.15,2.754,2.856v8.345c0,.493-.287.761-.781.761h-.657c-.493,0-.761-.268-.761-.761v-7.893c0-.884-.493-1.377-1.377-1.377-.781,0-1.459.473-1.459,1.356v7.913c0,.493-.268.761-.761.761h-.658c-.493,0-.76-.268-.76-.761Z" fill="#fff" stroke-width="0"></path></g><g><g><path d="M72.012,14.026h10.583c9.408,0,12.775,1.978,12.775,9.408,0,6.147-2.779,9.193-9.728,9.888l10.797,17.853h-5.826l-10.209-17.265h-3.368v17.265h-5.024V14.026ZM82.436,30.062c6.2,0,7.964-1.978,7.964-6.468,0-4.543-1.924-5.719-7.964-5.719h-5.399v12.187h5.399Z" fill="#fff" stroke-width="0"></path><path d="M103.766,14.026h20.205v3.956h-15.18v12.08h14.058v3.902h-14.058v13.256h15.18v3.956h-20.205V14.026Z" fill="#fff" stroke-width="0"></path><path d="M141.4,14.026h7.269l11.92,37.149h-5.291l-3.208-10.103h-14.325l-3.207,10.103h-4.971l11.812-37.149ZM151.128,37.17l-3.1-9.782c-1.177-3.634-2.085-6.628-3.101-10.049h-.054c-1.015,3.475-1.924,6.468-3.1,10.156l-3.046,9.675h12.4Z" fill="#fff" stroke-width="0"></path><path d="M166.046,14.026h11.545c11.012,0,15.234,3.154,15.234,18.281,0,15.02-4.544,18.868-15.501,18.868h-11.278V14.026ZM177.377,47.219c7.43,0,10.424-2.298,10.424-14.699s-2.833-14.539-10.424-14.539h-6.307v29.238h6.307Z" fill="#fff" stroke-width="0"></path></g><g><path d="M72.012,14.026h10.583c9.408,0,12.775,1.978,12.775,9.408,0,6.147-2.779,9.193-9.728,9.888l10.797,17.853h-5.826l-10.209-17.265h-3.368v17.265h-5.024V14.026ZM82.436,30.062c6.2,0,7.964-1.978,7.964-6.468,0-4.543-1.924-5.719-7.964-5.719h-5.399v12.187h5.399Z" fill="#fff" stroke-width="0"></path><path d="M103.766,14.026h20.205v3.956h-15.18v12.08h14.058v3.902h-14.058v13.256h15.18v3.956h-20.205V14.026Z" fill="#fff" stroke-width="0"></path><path d="M141.4,14.026h7.269l11.92,37.149h-5.291l-3.208-10.103h-14.325l-3.207,10.103h-4.971l11.812-37.149ZM151.128,37.17l-3.1-9.782c-1.177-3.634-2.085-6.628-3.101-10.049h-.054c-1.015,3.475-1.924,6.468-3.1,10.156l-3.046,9.675h12.4Z" fill="#fff" stroke-width="0"></path><path d="M166.046,14.026h11.545c11.012,0,15.234,3.154,15.234,18.281,0,15.02-4.544,18.868-15.501,18.868h-11.278V14.026ZM177.377,47.219c7.43,0,10.424-2.298,10.424-14.699s-2.833-14.539-10.424-14.539h-6.307v29.238h6.307Z" fill="#fff" stroke-width="0"></path></g><g><path d="M72.012,14.026h10.583c9.408,0,12.775,1.978,12.775,9.408,0,6.147-2.779,9.193-9.728,9.888l10.797,17.853h-5.826l-10.209-17.265h-3.368v17.265h-5.024V14.026ZM82.436,30.062c6.2,0,7.964-1.978,7.964-6.468,0-4.543-1.924-5.719-7.964-5.719h-5.399v12.187h5.399Z" fill="none" stroke="#fff" stroke-width="2"></path><path d="M103.766,14.026h20.205v3.956h-15.18v12.08h14.058v3.902h-14.058v13.256h15.18v3.956h-20.205V14.026Z" fill="none" stroke="#fff" stroke-width="2"></path><path d="M141.4,14.026h7.269l11.92,37.149h-5.291l-3.208-10.103h-14.325l-3.207,10.103h-4.971l11.812-37.149ZM151.128,37.17l-3.1-9.782c-1.177-3.634-2.085-6.628-3.101-10.049h-.054c-1.015,3.475-1.924,6.468-3.1,10.156l-3.046,9.675h12.4Z" fill="none" stroke="#fff" stroke-width="2"></path><path d="M166.046,14.026h11.545c11.012,0,15.234,3.154,15.234,18.281,0,15.02-4.544,18.868-15.501,18.868h-11.278V14.026ZM177.377,47.219c7.43,0,10.424-2.298,10.424-14.699s-2.833-14.539-10.424-14.539h-6.307v29.238h6.307Z" fill="none" stroke="#fff" stroke-width="2"></path></g></g><path d="M11.305,17.225l18.063,6.898c-1.214-2.484-1.636-5.466-.965-8.49.711-3.207,2.535-5.918,4.94-7.673C31.331,2.999,26.745-.329,21.645.026c-6.531.455-11.412,6.763-10.902,14.091.075,1.081.276,2.117.563,3.108Z" fill="#ed7f50" stroke-width="0"></path><path d="M48.581,16.209c-.483-4.095-3.174-7.521-7.032-8.376-5.028-1.115-10.118,2.554-11.369,8.195-.679,3.062-.08,6.07,1.408,8.364l16.993-8.183Z" fill="#eab61e" stroke-width="0"></path><path d="M3.688,35.304c.18-1.411.985-1.867,1.238-2.063,1.94-1.499,5.974-2.96,10.275-3.916,1.99-.442,2.206,1.966,1,2.402-2.389.864-3.932,1.364-5.806,2.484,1.957-.712,5.818-1.758,6.67-2.043,2.226-.746,2.576,2.169,1.347,2.533-2.181.647-5.156,1.649-7.153,2.763,1.458-.421,4.786-1.2,6.199-1.452,2.186-.39,2.251,2.391.871,2.658-3.524.682-5.981,1.504-7.313,2.207,1.74-.316,4.551-.893,5.922-.89,2.226.005,1.957,2.567.22,2.696-2.307.171-5.378.752-5.732.837-1.16.28-.992.305-1.72.446-1.172.227-3.142.546-4.536-1.429-1.134-1.605-1.847-4.372-1.482-7.233Z" fill="#ed7f50" stroke-width="0"></path><path d="M30.103,26.351L.266,14.957l4.353,16.979c2.111-1.436,5.886-2.85,10.312-3.834.25-.056.497-.084.733-.084,1.274,0,2.275.829,2.491,2.063.044.253.053.504.028.747,1.117.184,1.975,1.068,2.15,2.275.13.895-.144,1.732-.686,2.272.47.419.778,1.015.845,1.717.107,1.112-.425,2.119-1.293,2.581.375.441.566.985.585,1.511.051,1.431-1.062,2.637-2.534,2.746-2.214.164-5.207.727-5.531.805-.525.127-.758.197-.936.251-.216.065-.402.122-.84.207-.517.1-1.081.192-1.7.192-.062,0-.12-.008-.18-.01l1.248,4.867,23.648,8.352-2.858-32.246Z" fill="#c42440" stroke-width="0"></path><path d="M57.74,33.479c-1.358-1.106-2.425-1.81-3.477-2.306-1.198-.565-1.805,1.192-1.051,1.619.632.358,1.957.973,2.37,1.475-.841-.401-2.545-.86-3.022-1.015-1.302-.424-1.743,1.578-.695,1.87.756.211,2.478.75,3.049.973-.922-.089-2.145-.153-2.81-.18-1.301-.052-1.301,1.857-.164,1.904.69.028,2.899.075,3.324.199-1.034.15-2.434.476-2.854.579-.913.223-.616,1.575.265,1.46.564-.073,2.922-.422,3.408-.45s1.431.081,2.096-.67c.458-.517,1.45-3.919-.439-5.458Z" fill="#eab61e" stroke-width="0"></path><path d="M56.334,40.852c-.066,0-.127.001-.18.004-.297.017-1.723.218-2.489.326-.364.051-.667.094-.828.115-.091.012-.18.017-.266.017-1.008,0-1.83-.747-1.954-1.776-.037-.31-.004-.611.089-.885-.536-.403-.866-1.063-.85-1.825.011-.533.193-1.01.496-1.38-.263-.424-.377-.953-.299-1.518.129-.941.758-1.671,1.579-1.908.008-.165.034-.333.079-.501.27-1.023,1.113-1.711,2.099-1.711.332,0,.664.077.988.23,1.046.493,2.099,1.18,3.346,2.165l1.875-19.485-28.097,13.53,2.859,32.258,21.895-11.048.644-6.696c-.392.075-.743.084-.985.088Z" fill="#c42440" stroke-width="0"></path></svg> 